<svg xmlns="http://www.w3.org/2000/svg" xmlns:xlink="http://www.w3.org/1999/xlink" width="100" height="100" viewBox="0 0 100 100"><g><g transform="translate(50 50) scale(0.69 0.69) rotate(0) translate(-50 -50)" style="fill:#ffffff;"><svg fill="#ffffff" xmlns="http://www.w3.org/2000/svg" xmlns:xlink="http://www.w3.org/1999/xlink" version="1.0" x="0px" y="0px" viewBox="0 0 100 100" overflow="" enable-background="new 0 0 100 100" xml:space="preserve"><path d="M28.086,26.696c1.603,1.427,1.745,3.883,0.318,5.485c-1.423,1.602-3.88,1.748-5.484,0.322 c-1.604-1.424-1.747-3.882-0.321-5.488C24.025,25.415,26.482,25.266,28.086,26.696z"></path><path d="M20.448,21.232c1.202,1.068,1.312,2.911,0.24,4.115c-1.07,1.202-2.911,1.31-4.115,0.242 c-1.203-1.074-1.31-2.916-0.242-4.119C17.4,20.269,19.243,20.161,20.448,21.232z"></path><path d="M17.447,49.966c1.82,0.107,3.21,1.675,3.101,3.492c-0.105,1.819-1.673,3.211-3.494,3.1 c-1.818-0.104-3.208-1.665-3.101-3.485C14.059,51.247,15.623,49.858,17.447,49.966z"></path><path d="M8.741,50.277c1.365,0.083,2.41,1.256,2.329,2.625c-0.084,1.36-1.254,2.403-2.622,2.325 c-1.366-0.083-2.407-1.257-2.325-2.619C6.204,51.241,7.378,50.196,8.741,50.277z"></path><path d="M22.981,71.35c1.271-0.883,3.021-0.57,3.909,0.698c0.887,1.275,0.575,3.024-0.697,3.912 c-1.271,0.888-3.023,0.573-3.911-0.698C21.398,73.992,21.708,72.241,22.981,71.35z"></path><path d="M17.334,76.139c0.957-0.662,2.272-0.426,2.936,0.526c0.664,0.953,0.432,2.269-0.524,2.933 c-0.957,0.664-2.269,0.432-2.935-0.521C16.147,78.12,16.384,76.806,17.334,76.139z"></path><path d="M42.256,21.413c1.253,2.282,0.422,5.149-1.854,6.408c-2.28,1.253-5.148,0.422-6.404-1.856 c-1.256-2.281-0.424-5.149,1.856-6.408C38.133,18.305,40.998,19.134,42.256,21.413z"></path><path d="M23.39,38.076c2.368,0.862,3.59,3.483,2.731,5.851c-0.869,2.367-3.483,3.593-5.856,2.729 c-2.369-0.861-3.586-3.479-2.728-5.85C18.401,38.44,21.02,37.219,23.39,38.076z"></path><path d="M20.781,60.01c2.097-0.6,4.287,0.613,4.885,2.706c0.6,2.099-0.615,4.285-2.71,4.883c-2.096,0.602-4.284-0.614-4.882-2.706 C17.475,62.798,18.687,60.61,20.781,60.01z"></path><path d="M29.376,76.139c0.727-1.208,2.296-1.603,3.51-0.875c1.209,0.723,1.604,2.298,0.876,3.503 c-0.727,1.215-2.298,1.607-3.506,0.882C29.043,78.922,28.655,77.352,29.376,76.139z"></path><path d="M50.756,10.471c-2.898,0-5.241,2.346-5.241,5.24c0,2.891,2.343,5.24,5.241,5.24c2.889,0,5.234-2.349,5.234-5.24 C55.991,12.817,53.645,10.471,50.756,10.471z"></path><path d="M50.756,0.948c-1.787,0-3.233,1.447-3.233,3.229c0,1.783,1.446,3.229,3.233,3.229c1.781,0,3.224-1.447,3.224-3.229 S52.537,0.948,50.756,0.948z"></path><path d="M73.419,26.696c-1.603,1.427-1.744,3.883-0.318,5.485c1.424,1.602,3.882,1.748,5.483,0.322 c1.606-1.424,1.745-3.882,0.323-5.488C77.483,25.415,75.022,25.266,73.419,26.696z"></path><path d="M81.058,21.232c-1.2,1.068-1.309,2.911-0.241,4.115c1.075,1.202,2.919,1.31,4.116,0.242 c1.204-1.074,1.312-2.916,0.241-4.119C84.104,20.269,82.262,20.161,81.058,21.232z"></path><path d="M84.059,49.966c-1.82,0.107-3.207,1.675-3.102,3.492c0.104,1.819,1.673,3.211,3.489,3.1 c1.823-0.104,3.212-1.665,3.106-3.485C87.444,51.247,85.883,49.858,84.059,49.966z"></path><path d="M92.764,50.277c-1.362,0.083-2.408,1.256-2.326,2.625c0.081,1.36,1.252,2.403,2.621,2.325 c1.364-0.083,2.405-1.257,2.325-2.619C95.303,51.241,94.128,50.196,92.764,50.277z"></path><path d="M78.523,71.35c-1.268-0.883-3.021-0.57-3.909,0.698c-0.886,1.275-0.57,3.024,0.698,3.912 c1.273,0.888,3.023,0.573,3.909-0.698C80.108,73.992,79.797,72.241,78.523,71.35z"></path><path d="M84.168,76.139c-0.954-0.662-2.267-0.426-2.932,0.526c-0.663,0.953-0.428,2.269,0.523,2.933 c0.953,0.664,2.267,0.432,2.934-0.521C85.355,78.12,85.121,76.806,84.168,76.139z"></path><path d="M59.251,21.413c-1.258,2.282-0.423,5.149,1.853,6.408c2.28,1.253,5.147,0.422,6.406-1.856 c1.255-2.281,0.424-5.149-1.858-6.408C63.375,18.305,60.506,19.134,59.251,21.413z"></path><path d="M78.117,38.076c-2.37,0.862-3.589,3.483-2.729,5.851c0.862,2.367,3.479,3.593,5.854,2.729 c2.364-0.861,3.585-3.479,2.728-5.85C83.105,38.44,80.485,37.219,78.117,38.076z"></path><path d="M80.726,60.01c-2.098-0.6-4.285,0.613-4.888,2.706c-0.6,2.099,0.616,4.285,2.714,4.883 c2.096,0.602,4.277-0.614,4.883-2.706C84.03,62.798,82.821,60.61,80.726,60.01z"></path><path d="M72.129,76.139c-0.727-1.208-2.3-1.603-3.51-0.875c-1.21,0.723-1.606,2.298-0.873,3.503 c0.724,1.215,2.296,1.607,3.504,0.882C72.46,78.922,72.851,77.352,72.129,76.139z"></path><path d="M50.75,24.468c0.006,0,0.006,0,0.006,0l0,0H50.75z"></path><path d="M78.421,53.608c-0.095-1.613-1.046-2.974-2.389-3.66l-0.029,0.032c-2.799-1.336-4.733-4.194-4.733-7.5 c0-1.077,0.205-2.098,0.574-3.044l0.02,0.007c0.64-1.734,0.321-3.761-0.989-5.237c-1.273-1.436-3.172-1.993-4.928-1.63 l0.012,0.003c-0.686,0.182-1.399,0.279-2.14,0.279c-3.447,0-6.409-2.102-7.663-5.097l0.011-0.003 c-1.016-1.957-3.062-3.289-5.41-3.289c-2.356,0-4.402,1.333-5.419,3.289l0.015,0.003c-1.261,2.995-4.219,5.097-7.666,5.097 c-0.736,0-1.456-0.098-2.136-0.279l0.012-0.003c-1.755-0.363-3.653,0.194-4.934,1.63c-1.312,1.477-1.626,3.503-0.986,5.237 l0.019-0.007c0.371,0.946,0.575,1.968,0.575,3.044c0,3.306-1.929,6.164-4.732,7.5l-0.028-0.032 c-1.344,0.686-2.295,2.046-2.392,3.66c-0.096,1.625,0.703,3.101,1.974,3.937h0.001c2.235,1.49,3.712,4.034,3.712,6.924 c0,0.963-0.162,1.889-0.465,2.751L28.3,67.191c-0.5,1.146-0.406,2.524,0.363,3.626c0.712,1.029,1.855,1.582,3.016,1.6v-0.004 c2.381,0,4.274,2.005,4.293,4.467c0,0.133,0.007,0.089,0,0.213c-0.05,1.369,0.8,2.664,2.166,3.125 c1.669,0.555,3.472-0.341,4.03-2.01c0.27-0.8,0.196-1.63-0.133-2.34l-0.066-0.06c-1.434-2.738-4.074-5.676-4.514-6.115 c-4.117-4.029-5.734-8.438-5.734-13.945c0-10.521,8.517-19.053,19.033-19.086c10.515,0.034,19.028,8.565,19.028,19.086 c0,5.507-1.618,9.916-5.733,13.945c-0.441,0.44-3.082,3.377-4.515,6.115l-0.069,0.06c-0.325,0.71-0.402,1.54-0.132,2.34 c0.561,1.668,2.361,2.564,4.032,2.01c1.366-0.461,2.211-1.756,2.166-3.125c-0.008-0.124,0-0.08,0-0.213 c0.02-2.462,1.912-4.467,4.291-4.467v0.004c1.164-0.018,2.306-0.57,3.021-1.6c0.771-1.102,0.862-2.479,0.362-3.626l-0.007,0.028 c-0.301-0.861-0.464-1.788-0.464-2.751c0-2.89,1.474-5.434,3.714-6.924h0.002C77.717,56.708,78.521,55.233,78.421,53.608z"></path><path d="M55.114,91.567V90.97l4.23-0.57c0.339-0.047,0.575-0.359,0.531-0.695c-0.047-0.336-0.355-0.572-0.695-0.527l-10.788,1.404 c-0.338,0.045-0.647-0.19-0.694-0.528c-0.045-0.336,0.192-0.647,0.529-0.691l4.042-0.546v-0.593l1.616-0.217v0.599l1.229-0.164 V87.84l4.23-0.57c0.339-0.047,0.575-0.359,0.531-0.693c-0.047-0.338-0.355-0.574-0.695-0.528l-10.788,1.405 c-0.338,0.047-0.647-0.189-0.694-0.528c-0.045-0.334,0.192-0.647,0.529-0.694l4.042-0.547v-1.47l-9.403,0.002v2.775l-0.199,0.035 c-0.411,0.059-0.698,0.435-0.644,0.847c0.054,0.408,0.431,0.697,0.843,0.646v1.6l-0.199,0.039 c-0.411,0.059-0.698,0.438-0.644,0.846c0.054,0.411,0.431,0.7,0.843,0.644v1.608l-0.199,0.035 c-0.411,0.054-0.698,0.433-0.644,0.846c0.054,0.407,0.431,0.696,0.843,0.64v0.003v1.534l1.982,1.931h3.123 c0.037,0.854,1.209,1.54,2.646,1.54c1.439,0,2.605-0.686,2.646-1.54h3.295l1.972-1.914l-0.009-2.689l0.823-0.11 c0.339-0.046,0.575-0.359,0.53-0.694c-0.046-0.338-0.355-0.573-0.695-0.528v-0.001l-10.788,1.406 c-0.338,0.048-0.647-0.188-0.694-0.524c-0.045-0.343,0.192-0.65,0.529-0.697l4.042-0.543v-0.596l1.617-0.217v0.599L55.114,91.567z M45.981,86.534c0.351,0,0.635,0.286,0.635,0.636s-0.284,0.634-0.635,0.634s-0.636-0.283-0.636-0.634 C45.346,86.82,45.63,86.534,45.981,86.534z M45.981,94.067c-0.351,0-0.636-0.284-0.636-0.638c0-0.349,0.285-0.635,0.636-0.635 s0.635,0.286,0.635,0.635C46.617,93.783,46.333,94.067,45.981,94.067z M46.005,90.932c-0.351,0-0.637-0.281-0.637-0.632 c0-0.349,0.286-0.634,0.637-0.634c0.352,0,0.635,0.285,0.635,0.634C46.64,90.65,46.357,90.932,46.005,90.932z"></path><polygon points="55.114,84.215 53.886,84.215 53.886,85.471 55.114,85.311  "></polygon></svg></g></g></svg>